<svg width="50" height="50" viewBox="0 0 50 50" fill="none" xmlns="http://www.w3.org/2000/svg">
<path d="M47.25 23.6979H46.81L42.2525 10.3654L3.135 23.6979L2.25 23.6904M1 23.7004H2.25L30.115 1.44043L37.1575 11.3154" stroke="#FC90AB" stroke-width="2" stroke-linecap="square"/>
<path d="M31 36.1904C31 37.848 30.3415 39.4377 29.1694 40.6098C27.9973 41.7819 26.4076 42.4404 24.75 42.4404C23.0924 42.4404 21.5027 41.7819 20.3306 40.6098C19.1585 39.4377 18.5 37.848 18.5 36.1904C18.5 34.5328 19.1585 32.9431 20.3306 31.771C21.5027 30.5989 23.0924 29.9404 24.75 29.9404C26.4076 29.9404 27.9973 30.5989 29.1694 31.771C30.3415 32.9431 31 34.5328 31 36.1904Z" stroke="#FC90AB" stroke-width="2" stroke-linecap="square"/>
<path d="M48.5 23.6904V48.6904H1V23.6904H48.5Z" stroke="#FC90AB" stroke-width="2" stroke-linecap="square"/>
<path d="M1 23.6904H6C6 25.0165 5.47322 26.2883 4.53553 27.226C3.59785 28.1636 2.32608 28.6904 1 28.6904V23.6904ZM48.5 23.6904H43.5C43.5 25.0165 44.0268 26.2883 44.9645 27.226C45.9021 28.1636 47.1739 28.6904 48.5 28.6904V23.6904ZM1 48.6904H6.005C6.00566 48.033 5.87665 47.3819 5.62536 46.7743C5.37406 46.1668 5.00542 45.6148 4.54054 45.1499C4.07565 44.685 3.52364 44.3164 2.91611 44.0651C2.30858 43.8138 1.65745 43.6848 1 43.6854V48.6904ZM48.5 48.6904H43.5C43.5 47.3643 44.0268 46.0926 44.9645 45.1549C45.9021 44.2172 47.1739 43.6904 48.5 43.6904V48.6904Z" stroke="#FC90AB" stroke-width="2" stroke-linecap="square"/>
</svg>
