<svg width="60" height="60" viewBox="0 0 60 60" fill="none" xmlns="http://www.w3.org/2000/svg">
<path d="M26.25 55C13.1332 55 2.5 43.8071 2.5 30C2.5 16.1929 13.1332 5 26.25 5C39.3668 5 50 16.1929 50 30C50 43.8071 39.3668 55 26.25 55Z" stroke="#FC90AB" stroke-width="2" stroke-linecap="round" stroke-linejoin="round"/>
<path d="M32.5 22C30.9092 20.7092 28.9236 20.0032 26.875 20C21.6975 20 17.5 24.475 17.5 30C17.5 35.525 21.6975 40 26.875 40C28.985 40 30.9325 39.255 32.5 38" stroke="#FC90AB" stroke-width="2" stroke-linecap="round" stroke-linejoin="round"/>
<path d="M25 5C35.8325 5 57.5 7.5 57.5 30C57.5 52.5 35.8325 55 25 55" stroke="#FC90AB" stroke-width="2"/>
</svg>
