<svg width="54" height="46" viewBox="0 0 54 46" fill="none" xmlns="http://www.w3.org/2000/svg">
<path d="M26.5143 0C26.8702 9.65813e-05 27.2179 0.124441 27.5126 0.357015C27.8073 0.589589 28.0356 0.919739 28.168 1.30493C29.4795 5.12414 31.126 7.60518 32.8581 9.20517C34.4576 10.6792 36.3757 11.6083 38.4 11.8898C42.2989 12.48 46.2371 10.9548 48.6071 9.73712L48.657 9.71218C48.975 9.54042 49.2984 9.38239 49.6264 9.23842C49.8545 9.14699 50.4461 8.90179 51.109 9.07218C51.4553 9.16454 51.7807 9.34208 52.0634 9.59293C52.3462 9.84377 52.5797 10.1621 52.7484 10.5267C52.9723 11.047 53.065 11.6306 53.0157 12.2098C52.9979 12.5548 52.9444 12.9745 52.8945 13.3859L50.1289 35.9687L50.1039 36.1848C49.965 37.3152 49.8438 38.3334 49.4054 39.3017C49.011 40.1392 48.4664 40.8678 47.8088 41.4378C47.0497 42.0778 46.2727 42.3396 45.4138 42.6264L45.2677 42.6762C33.0079 46.727 20.0242 46.727 7.76444 42.6762L7.61476 42.6264C6.75941 42.3355 5.98248 42.0778 5.22336 41.4378C4.56532 40.8666 4.02071 40.1366 3.62672 39.2976C3.18836 38.3334 3.06362 37.3152 2.92819 36.1848L2.89968 35.9687L0.141193 13.4483L0.134066 13.3859C0.0840984 12.9953 0.043691 12.6031 0.0128928 12.2098C-0.0364019 11.6306 0.0562865 11.047 0.280187 10.5267C0.449259 10.1617 0.683336 9.84303 0.966708 9.59216C1.25008 9.34129 1.57619 9.164 1.92316 9.07218C2.41973 8.96348 2.93256 9.02112 3.40219 9.23842C3.68731 9.35893 4.03301 9.53348 4.37158 9.71218L4.42504 9.73712C6.79505 10.9548 10.7332 12.48 14.6286 11.8898C16.6529 11.6083 18.571 10.6792 20.1705 9.20517C21.9026 7.60518 23.5527 5.12414 24.8606 1.30909C24.9924 0.923117 25.2205 0.592086 25.5152 0.358735C25.81 0.125384 26.158 0.000428735 26.5143 0ZM3.80135 13.9428L6.42797 35.3828C6.60616 36.8456 6.66319 37.1074 6.77723 37.3568C6.88415 37.5895 7.1265 37.9137 7.31182 38.0716C7.5114 38.2378 7.68247 38.3209 8.75165 38.6825C20.3653 42.5157 32.6633 42.5157 44.2769 38.6825C45.3461 38.3209 45.5172 38.242 45.7203 38.0716C45.9361 37.8754 46.1176 37.6327 46.2549 37.3568C46.3654 37.1074 46.4224 36.8456 46.6006 35.3828L49.2272 13.9428C46.5507 15.2103 42.3275 16.6732 37.9403 16.0124C35.275 15.6334 32.7509 14.4055 30.6449 12.4633C28.9829 10.8917 27.5828 8.97735 26.5143 6.81557C25.4461 8.97884 24.046 10.8947 22.3837 12.4675C20.2777 14.4096 17.7536 15.6376 15.0883 16.0166C10.7011 16.6815 6.48143 15.2145 3.80135 13.947" fill="#FC90AB"/>
</svg>
