<svg width="43" height="43" viewBox="0 0 43 43" fill="none" xmlns="http://www.w3.org/2000/svg">
<path d="M12.1336 0L10.0122 9.98664L0.0472283 12.3617L10.073 14.474L12.4574 24.4027L14.5762 14.4135L24.5429 12.0418L14.518 9.9287L12.1336 0ZM38.442 0.454044L30.6109 8.25414L34.8823 12.5087L42.7125 4.70836L38.442 0.454044ZM27.7628 11.0907L0 38.7453L4.27098 43L32.0338 15.3454L27.7624 11.0907H27.7628ZM36.3713 16.0433L35.2381 21.3789L29.9129 22.6496L35.2693 23.7775L36.5424 29.082L37.6748 23.7465L43 22.4757L37.6436 21.3477L36.3713 16.0433ZM27.6364 25.7385L26.3877 31.6226L20.5169 33.0192L26.4222 34.263L27.8261 40.1126L29.0748 34.2286L34.9455 32.8303L29.0411 31.5856L27.6364 25.7385Z" fill="black"/>
</svg>
